<svg width="414" height="49" viewBox="0 0 414 49" fill="none" xmlns="http://www.w3.org/2000/svg">
<path d="M0 31.6447L13.8 35.6003C27.6 39.5559 55.2 47.4671 82.8 48.7774C110.4 50.1866 138 44.7476 165.6 36.9106C193.2 28.9253 220.8 18.5418 248.4 14.5121C276 10.6307 303.6 13.1029 331.2 17.1327C358.8 21.0141 386.4 26.453 400.2 28.9994L414 31.6447V0H400.2C386.4 0 358.8 0 331.2 0C303.6 0 276 0 248.4 0C220.8 0 193.2 0 165.6 0C138 0 110.4 0 82.8 0C55.2 0 27.6 0 13.8 0H0V31.6447Z" fill="#051638"/>
</svg>
