<svg width="11" height="11" viewBox="0 0 11 11" fill="none" xmlns="http://www.w3.org/2000/svg">
<path d="M11 5.5C11 8.53831 8.53831 11 5.5 11C2.46169 11 0 8.53831 0 5.5C0 2.46169 2.46169 0 5.5 0C8.53831 0 11 2.46169 11 5.5ZM4.52419 2.92742V5.5H2.95181C2.71452 5.5 2.59476 5.78831 2.76331 5.95464L5.31149 8.48952C5.41573 8.59375 5.58206 8.59375 5.68629 8.48952L8.23448 5.95464C8.40302 5.78609 8.28327 5.5 8.04597 5.5H6.47581V2.92742C6.47581 2.78105 6.35605 2.66129 6.20968 2.66129H4.79032C4.64395 2.66129 4.52419 2.78105 4.52419 2.92742Z" fill="black"/>
</svg>
