<svg width="200" height="200" viewBox="0 0 200 200" fill="none" xmlns="http://www.w3.org/2000/svg">
<rect width="200" height="200" rx="13.2619" fill="#051638"/>
<rect width="200" height="200" rx="13.2619" fill="url(#paint0_radial)" fill-opacity="0.3"/>
<path d="M96.0201 23.3757H36.7817C25.3067 23.3757 16.0081 33.3679 16.0081 45.6993V109.362C16.0081 121.694 25.3067 131.693 36.7817 131.693H116.8V120.7V45.6993C116.8 33.3679 107.494 23.3757 96.0201 23.3757Z" fill="#F7F7FD"/>
<path d="M96.0201 23.3757H36.7817C25.3067 23.3757 16.0081 33.3679 16.0081 45.6993V109.362C16.0081 121.694 25.3067 131.693 36.7817 131.693H116.8V120.7V45.6993C116.8 33.3679 107.494 23.3757 96.0201 23.3757Z" fill="url(#paint1_linear)"/>
<path d="M171.417 66.111H135.551C128.605 66.111 122.966 72.165 122.966 79.6218V118.168V131.693H171.417C178.369 131.693 183.996 125.639 183.996 118.168V79.6218C183.996 72.165 178.369 66.111 171.417 66.111Z" fill="#F7F7FD"/>
<path d="M171.417 66.111H135.551C128.605 66.111 122.966 72.165 122.966 79.6218V118.168V131.693H171.417C178.369 131.693 183.996 125.639 183.996 118.168V79.6218C183.996 72.165 178.369 66.111 171.417 66.111Z" fill="url(#paint2_linear)"/>
<path d="M150.186 139.794C146.281 139.794 130.038 139.794 130.038 139.794H122.966V169.046C122.966 173.242 126.136 176.645 130.038 176.645H150.186C154.091 176.645 157.255 173.242 157.255 169.046V147.4C157.255 143.197 154.091 139.794 150.186 139.794Z" fill="#2BA84A"/>
<path d="M150.186 139.794C146.281 139.794 130.038 139.794 130.038 139.794H122.966V169.046C122.966 173.242 126.136 176.645 130.038 176.645H150.186C154.091 176.645 157.255 173.242 157.255 169.046V147.4C157.255 143.197 154.091 139.794 150.186 139.794Z" fill="url(#paint3_linear)"/>
<path d="M150.186 139.794C146.281 139.794 130.038 139.794 130.038 139.794H122.966V169.046C122.966 173.242 126.136 176.645 130.038 176.645H150.186C154.091 176.645 157.255 173.242 157.255 169.046V147.4C157.255 143.197 154.091 139.794 150.186 139.794Z" fill="url(#paint4_linear)"/>
<path d="M116.801 139.794H99.2597C96.7431 139.794 94.7025 141.99 94.7025 144.688V158.653C94.7025 161.352 96.7431 163.548 99.2597 163.548H112.243C114.762 163.548 116.801 161.352 116.801 158.653V144.688V139.794Z" fill="#F7F7FD"/>
<path d="M116.801 139.794H99.2597C96.7431 139.794 94.7025 141.99 94.7025 144.688V158.653C94.7025 161.352 96.7431 163.548 99.2597 163.548H112.243C114.762 163.548 116.801 161.352 116.801 158.653V144.688V139.794Z" fill="url(#paint5_linear)"/>
<defs>
<radialGradient id="paint0_radial" cx="0" cy="0" r="1" gradientUnits="userSpaceOnUse" gradientTransform="translate(200 28.9524) rotate(140.039) scale(216.497 285.489)">
<stop stop-color="#F7F7FD"/>
<stop offset="1" stop-opacity="0"/>
</radialGradient>
<linearGradient id="paint1_linear" x1="103.272" y1="122.194" x2="-136.19" y2="-115.728" gradientUnits="userSpaceOnUse">
<stop stop-color="#00A0FF"/>
<stop offset="0.007" stop-color="#00A1FF"/>
<stop offset="0.26" stop-color="#00BEFF"/>
<stop offset="0.512" stop-color="#00D2FF"/>
<stop offset="0.76" stop-color="#00DFFF"/>
<stop offset="1" stop-color="#00E3FF"/>
</linearGradient>
<linearGradient id="paint2_linear" x1="100.457" y1="149.42" x2="170.488" y2="88.9088" gradientUnits="userSpaceOnUse">
<stop stop-color="#32A071"/>
<stop offset="0.069" stop-color="#2DA771"/>
<stop offset="0.476" stop-color="#15CF74"/>
<stop offset="0.801" stop-color="#06E775"/>
<stop offset="1" stop-color="#00F076"/>
</linearGradient>
<linearGradient id="paint3_linear" x1="152.539" y1="146.374" x2="101.484" y2="208.007" gradientUnits="userSpaceOnUse">
<stop stop-color="#FF3A44"/>
<stop offset="1" stop-color="#C31162"/>
</linearGradient>
<linearGradient id="paint4_linear" x1="172.708" y1="184.712" x2="117.32" y2="132.234" gradientUnits="userSpaceOnUse">
<stop stop-color="#FFE000"/>
<stop offset="0.409" stop-color="#FFBD00"/>
<stop offset="0.775" stop-color="#FFA500"/>
<stop offset="1" stop-color="#FF9C00"/>
</linearGradient>
<linearGradient id="paint5_linear" x1="108.902" y1="152.445" x2="90.0207" y2="167.234" gradientUnits="userSpaceOnUse">
<stop stop-color="#FF3A44"/>
<stop offset="1" stop-color="#C31162"/>
</linearGradient>
</defs>
</svg>
