<svg width="16" height="18" viewBox="0 0 16 18" fill="none" xmlns="http://www.w3.org/2000/svg">
<path d="M13.3333 12.6397C12.6578 12.6397 12.0533 12.909 11.5911 13.331L5.25333 9.60548C5.29778 9.39901 5.33333 9.19253 5.33333 8.97709C5.33333 8.76163 5.29778 8.55516 5.25333 8.34869L11.52 4.65911C12 5.10796 12.6311 5.38625 13.3333 5.38625C14.8089 5.38625 16 4.18332 16 2.69313C16 1.20293 14.8089 0 13.3333 0C11.8578 0 10.6667 1.20293 10.6667 2.69313C10.6667 2.90858 10.7022 3.11505 10.7467 3.32152L4.48 7.0111C4 6.56225 3.36889 6.28396 2.66667 6.28396C1.19111 6.28396 0 7.48689 0 8.97709C0 10.4673 1.19111 11.6702 2.66667 11.6702C3.36889 11.6702 4 11.3919 4.48 10.9431L10.8089 14.6775C10.7644 14.8661 10.7378 15.0635 10.7378 15.261C10.7378 16.7064 11.9022 17.8824 13.3333 17.8824C14.7644 17.8824 15.9289 16.7064 15.9289 15.261C15.9289 13.8157 14.7644 12.6397 13.3333 12.6397Z" fill="#F7F7FD"/>
</svg>
